External Loads File
version=1
nRows=84
nColumns=13
Range=5.000000e-03-10 seconds
endheader
time 	forceRightX 	forceRightY 	forceRightZ 	pointRightX 	pointRightY 	pointRightZ 	forceLeftX 	forceLeftY 	forceLeftZ 	pointLeftX 	pointLeftY 	pointLeftZ 		
2.505000 -59.652903 837.945153 -0.000000 0.428496 0.343119 -0.115084 4.078402 -54.857136 -0.000000 0.137688 0.315923 -0.358495
2.510000 -59.277180 844.111623 -0.000000 0.428701 0.340438 -0.114917 2.854978 -60.443860 -0.000000 0.137852 0.318601 -0.358450
2.515000 -58.272055 850.226197 -0.000000 0.428928 0.337494 -0.114794 1.577730 -65.407399 -0.000000 0.138053 0.321285 -0.358660
2.520000 -57.488943 856.145843 -0.000000 0.429140 0.334594 -0.114577 0.344276 -69.784396 -0.000000 0.138312 0.323986 -0.358610
2.525000 -56.719713 861.742808 -0.000000 0.429334 0.331737 -0.114430 -0.841234 -73.663699 -0.000000 0.138522 0.326747 -0.358658
2.530000 -56.591611 866.833525 -0.000000 0.429556 0.329101 -0.114248 -1.940756 -77.153980 -0.000000 0.138878 0.329502 -0.358693
2.535000 -56.423753 871.358432 -0.000000 0.429754 0.326475 -0.114110 -3.045828 -80.357070 -0.000000 0.139223 0.332233 -0.358730
2.540000 -54.509341 875.385777 -0.000000 0.429753 0.323368 -0.114371 -4.344353 -83.363350 -0.000000 0.139636 0.334986 -0.358639
2.545000 -53.000861 878.812509 -0.000000 0.429871 0.320554 -0.114304 -5.659982 -86.278402 -0.000000 0.140078 0.337841 -0.358660
2.550000 -51.377396 881.775702 -0.000000 0.430051 0.317733 -0.114004 -7.067616 -89.183956 -0.000000 0.140567 0.340691 -0.358616
2.555000 -48.203542 884.506604 -0.000000 0.430179 0.314848 -0.113719 -8.740471 -92.115985 -0.000000 0.141096 0.343957 -0.358595
2.560000 -46.450044 887.020983 -0.000000 0.429928 0.311943 -0.114519 -10.376273 -95.112355 -0.000000 0.141681 0.346682 -0.358517
2.565000 -44.334990 889.618184 -0.000000 0.429697 0.309172 -0.113824 -12.133779 -98.138420 -0.000000 0.142272 0.349643 -0.358474
2.570000 -41.196523 892.520344 -0.000000 0.429511 0.306051 -0.113705 -14.050978 -101.144177 -0.000000 0.142949 0.352562 -0.358460
2.575000 -38.298110 895.822265 -0.000000 0.429268 0.303057 -0.113715 -15.949329 -104.086919 -0.000000 0.143732 0.355463 -0.358720
2.580000 -35.408777 899.638347 -0.000000 0.428997 0.300075 -0.113856 -17.815614 -106.876771 -0.000000 0.144508 0.358326 -0.358720
2.585000 -31.759786 904.043476 -0.000000 0.428596 0.297040 -0.113998 -19.689749 -109.394857 -0.000000 0.145331 0.361301 -0.358534
2.590000 -28.141345 909.012256 -0.000000 0.428365 0.293971 -0.114805 -21.402141 -111.570102 -0.000000 0.146220 0.364227 -0.358721
2.595000 -23.661542 914.554632 -0.000000 0.427826 0.290948 -0.114845 -22.989462 -113.338805 -0.000000 0.147192 0.367362 -0.358810
2.600000 -19.217041 920.614658 -0.000000 0.427282 0.287797 -0.114826 -24.301495 -114.733163 -0.000000 0.148144 0.370364 -0.358854
2.605000 -14.567644 927.166565 -0.000000 0.426625 0.284748 -0.114838 -25.359377 -115.807767 -0.000000 0.149233 0.373478 -0.358877
2.610000 -9.967388 934.174276 -0.000000 0.425881 0.281688 -0.114944 -26.151951 -116.660128 -0.000000 0.150330 0.376558 -0.358944
2.615000 -5.185559 941.617732 -0.000000 0.425041 0.278608 -0.114872 -26.760325 -117.381405 -0.000000 0.151623 0.379599 -0.358775
2.620000 -0.439657 949.479010 -0.000000 0.424161 0.275548 -0.114980 -27.222987 -118.073350 -0.000000 0.152848 0.382678 -0.358704
2.625000 4.681007 957.731822 -0.000000 0.423186 0.272422 -0.115018 -27.647190 -118.819381 -0.000000 0.154166 0.385745 -0.358831
2.630000 10.307156 966.310168 -0.000000 0.422172 0.269311 -0.115097 -28.102672 -119.701973 -0.000000 0.155560 0.388937 -0.358928
2.635000 15.890985 975.105849 -0.000000 0.421049 0.266222 -0.115186 -28.581701 -120.802217 -0.000000 0.156993 0.392043 -0.358891
2.640000 21.419176 983.960682 -0.000000 0.420092 0.263150 -0.115076 -29.129854 -122.163796 -0.000000 0.158514 0.395151 -0.359001
2.645000 27.861920 992.660203 -0.000000 0.418786 0.259974 -0.115131 -29.881099 -123.778239 -0.000000 0.160091 0.398214 -0.358928
2.650000 34.539015 1001.040011 -0.000000 0.417418 0.256863 -0.115077 -30.736462 -125.646415 -0.000000 0.161742 0.401305 -0.359235
2.655000 41.603464 1008.977513 -0.000000 0.416036 0.253743 -0.115166 -31.697778 -127.680540 -0.000000 0.163500 0.404425 -0.359234
2.660000 49.105000 1016.409585 -0.000000 0.414531 0.250665 -0.115199 -32.765357 -129.729528 -0.000000 0.165300 0.407624 -0.359119
2.665000 56.734876 1023.330335 -0.000000 0.412891 0.247541 -0.115173 -33.888192 -131.625236 -0.000000 0.167129 0.410707 -0.359261
2.670000 64.457965 1029.761506 -0.000000 0.411283 0.244518 -0.115172 -35.023828 -133.214314 -0.000000 0.169110 0.413855 -0.359310
2.675000 72.475685 1035.752414 -0.000000 0.409474 0.241412 -0.115210 -36.130564 -134.396214 -0.000000 0.171161 0.416878 -0.359338
2.680000 80.476470 1041.425827 -0.000000 0.407649 0.238344 -0.115091 -37.079626 -135.165529 -0.000000 0.173213 0.420003 -0.359497
2.685000 87.877031 1046.960381 -0.000000 0.405728 0.235242 -0.115096 -37.715954 -135.595574 -0.000000 0.175319 0.422880 -0.359625
2.690000 95.630023 1052.420181 -0.000000 0.403722 0.232224 -0.114994 -38.134178 -135.742318 -0.000000 0.177553 0.425932 -0.359797
2.695000 103.080434 1057.995972 -0.000000 0.401619 0.229217 -0.114968 -38.286779 -135.720710 -0.000000 0.179868 0.428880 -0.359697
2.700000 110.696294 1063.752417 -0.000000 0.399310 0.226194 -0.115279 -38.307121 -135.578992 -0.000000 0.182182 0.431837 -0.359944
2.705000 117.766523 1069.829267 -0.000000 0.397030 0.223310 -0.114742 -38.166292 -135.379040 -0.000000 0.184643 0.434739 -0.360103
2.710000 124.481250 1076.235543 -0.000000 0.394780 0.220393 -0.114709 -37.923912 -135.140036 -0.000000 0.187143 0.437606 -0.360218
2.715000 131.251212 1082.911951 -0.000000 0.392392 0.217439 -0.114723 -37.667024 -134.876634 -0.000000 0.189735 0.440358 -0.360353
2.720000 137.895262 1089.848589 -0.000000 0.389963 0.214578 -0.114647 -37.439370 -134.624092 -0.000000 0.192426 0.443139 -0.360435
2.725000 143.569070 1097.137961 -0.000000 0.387561 0.211694 -0.114441 -37.230806 -134.434541 -0.000000 0.195128 0.445654 -0.360503
2.730000 149.548090 1104.625466 -0.000000 0.384988 0.208997 -0.114375 -37.289934 -134.280184 -0.000000 0.197905 0.448356 -0.360514
2.735000 155.965950 1112.309273 -0.000000 0.382356 0.206177 -0.114355 -37.695275 -134.163150 -0.000000 0.200824 0.451051 -0.360775
2.740000 162.189749 1120.286255 -0.000000 0.379554 0.203567 -0.114489 -38.396658 -134.109463 -0.000000 0.203775 0.453767 -0.360820
2.745000 163.249477 1129.262495 -0.000000 0.376771 0.201037 -0.114549 -38.804286 -134.307404 -0.000000 0.205345 0.456340 -0.358100
2.750000 168.698140 1137.765854 -0.000000 0.373933 0.198421 -0.114617 -40.042850 -134.448835 -0.000000 0.208415 0.458718 -0.358278
2.755000 174.638551 1146.155164 -0.000000 0.370976 0.195902 -0.114597 -41.605133 -134.648279 -0.000000 0.211485 0.461324 -0.358097
2.760000 181.168457 1154.113998 -0.000000 0.367974 0.193330 -0.114528 -43.435363 -134.822693 -0.000000 0.214734 0.463853 -0.358398
2.765000 186.650333 1161.554638 -0.000000 0.364994 0.190834 -0.114388 -45.266619 -134.906595 -0.000000 0.217789 0.466331 -0.357733
2.770000 199.947667 1166.675708 -0.000000 0.361822 0.188426 -0.114347 -48.061544 -134.385686 -0.000000 0.222999 0.468823 -0.361337
2.775000 206.530536 1171.591974 -0.000000 0.358690 0.186178 -0.114382 -50.091051 -133.663460 -0.000000 0.226282 0.471523 -0.361254
2.780000 214.508446 1174.701974 -0.000000 0.355415 0.184164 -0.114456 -52.238197 -132.246191 -0.000000 0.230124 0.473907 -0.361900
2.785000 220.632244 1176.373756 -0.000000 0.352163 0.182035 -0.114432 -54.058018 -130.142312 -0.000000 0.233486 0.476297 -0.361055
2.790000 226.740979 1176.098557 -0.000000 0.348738 0.180150 -0.114437 -55.659827 -127.182161 -0.000000 0.236914 0.478514 -0.361267
2.795000 231.946604 1173.911031 -0.000000 0.345370 0.178339 -0.114353 -56.828134 -123.359270 -0.000000 0.240259 0.480748 -0.360951
2.800000 236.850205 1169.599666 -0.000000 0.341912 0.176549 -0.114289 -57.510177 -118.615883 -0.000000 0.243559 0.482920 -0.360836
2.805000 240.515927 1163.262693 -0.000000 0.338355 0.174829 -0.114053 -57.533693 -112.969062 -0.000000 0.246569 0.484991 -0.360674
2.810000 244.505436 1154.427091 -0.000000 0.334977 0.173157 -0.114253 -57.019698 -106.333661 -0.000000 0.250028 0.486968 -0.360637
2.815000 248.905184 1142.818444 -0.000000 0.331423 0.171612 -0.113918 -55.957046 -98.746370 -0.000000 0.253638 0.488845 -0.360305
2.820000 251.559727 1128.614559 -0.000000 0.327899 0.170193 -0.113782 -54.193308 -90.399991 -0.000000 0.256993 0.490594 -0.360986
2.825000 253.914766 1111.248314 -0.000000 0.324401 0.168748 -0.113693 -51.969205 -81.342056 -0.000000 0.260532 0.492167 -0.361036
2.830000 255.642116 1090.611756 -0.000000 0.320848 0.167385 -0.113530 -49.424589 -71.723607 -0.000000 0.264084 0.493754 -0.361220
2.835000 256.372340 1066.699731 -0.000000 0.317355 0.166102 -0.113334 -46.710847 -61.687830 -0.000000 0.267719 0.495131 -0.361141
2.840000 255.729716 1039.592999 -0.000000 0.313921 0.165015 -0.113141 -43.970672 -51.348168 -0.000000 0.271325 0.496329 -0.361151
2.845000 253.859557 1009.296967 -0.000000 0.310473 0.163915 -0.113011 -41.352839 -40.758715 -0.000000 0.274820 0.497484 -0.361411
2.850000 251.392493 975.690704 -0.000000 0.307011 0.162991 -0.112813 -38.965097 -29.909977 -0.000000 0.278439 0.498520 -0.361555
2.855000 248.534399 938.720264 -0.000000 0.303594 0.162094 -0.112612 -36.818621 -18.755016 -0.000000 0.282325 0.499430 -0.360860
2.860000 243.840071 898.767263 -0.000000 0.300193 0.161356 -0.112482 -34.863463 -7.276173 -0.000000 0.285922 0.500179 -0.360885
2.865000 238.014430 855.710316 -0.000000 0.296829 0.160680 -0.112243 -33.112236 4.592092 -0.000000 0.289492 0.500981 -0.361028
2.870000 231.226631 809.655233 -0.000000 0.293519 0.160065 -0.112005 -31.573785 16.811816 -0.000000 0.293138 0.501549 -0.361104
2.875000 222.951738 761.006351 -0.000000 0.290261 0.159600 -0.111730 -30.298507 29.274858 -0.000000 0.296634 0.501992 -0.360815
2.880000 213.216900 710.138885 -0.000000 0.287074 0.159183 -0.111491 -29.367641 41.910982 -0.000000 0.299961 0.502310 -0.361638
2.885000 203.221874 657.199689 -0.000000 0.283817 0.158892 -0.111220 -28.763494 54.750838 -0.000000 0.303523 0.502042 -0.361739
2.890000 191.877670 603.128343 -0.000000 0.280742 0.158670 -0.110977 -28.573715 67.796143 -0.000000 0.307071 0.502470 -0.361833
2.895000 179.898699 548.398190 -0.000000 0.277647 0.158614 -0.110690 -28.766077 81.170865 -0.000000 0.310601 0.502516 -0.361807
2.900000 167.673681 493.642095 -0.000000 0.274449 0.158503 -0.110392 -29.337983 94.961594 -0.000000 0.314171 0.502481 -0.361938
2.905000 155.447427 439.575369 -0.000000 0.271212 0.158824 -0.110105 -30.317215 109.142257 -0.000000 0.317742 0.502182 -0.362140
2.910000 143.400027 386.955922 -0.000000 0.268016 0.159166 -0.109864 -31.752639 123.590897 -0.000000 0.321378 0.501792 -0.362022
2.915000 132.445073 336.284010 -0.000000 0.264210 0.159733 -0.109876 -33.415698 138.270664 -0.000000 0.325050 0.501343 -0.362158
2.920000 121.751705 288.726735 -0.000000 0.260793 0.160445 -0.109661 -35.680582 153.059451 -0.000000 0.328709 0.500720 -0.362258
